<svg xmlns="http://www.w3.org/2000/svg" width="311" height="209" viewBox="0 0 311 209">
  <g id="Background">
    <rect width="311" height="209" fill="#001325"/>
  </g>
  <g id="Lockup">
    <g id="SymbolWrap" transform="translate(98 33)">
      <g id="Symbol" fill="#12CFE4">
<path id="CapTopRight" d="M 93.000,21.500 L 99.000,18.500 L 105.000,17.500 L 106.000,16.500 L 110.000,16.500 L 111.000,15.500 L 126.000,15.500 L 126.500,1.000 L 118.000,0.500 L 117.000,-0.500 L 115.000,0.500 L 105.000,0.500 L 104.000,1.500 L 94.000,3.500 L 91.000,5.500 L 84.000,7.500 L 72.500,13.000 L 79.000,18.500 L 83.000,20.500 L 85.000,20.500 L 86.000,21.500 L 93.000,21.500 Z"/>
<path id="BandUpper" d="M 94.000,49.500 L 95.000,48.500 L 99.000,48.500 L 100.000,47.500 L 103.000,47.500 L 104.000,46.500 L 106.000,46.500 L 110.000,44.500 L 114.000,44.500 L 115.000,43.500 L 124.000,43.500 L 126.000,44.500 L 126.500,30.000 L 124.000,28.500 L 111.000,28.500 L 110.000,29.500 L 107.000,29.500 L 104.000,31.500 L 102.000,31.500 L 98.000,33.500 L 95.000,33.500 L 94.000,34.500 L 86.000,34.500 L 85.000,33.500 L 79.000,32.500 L 71.000,28.500 L 64.000,22.500 L 49.000,12.500 L 30.000,3.500 L 27.000,3.500 L 22.000,1.500 L 18.000,1.500 L 17.000,0.500 L -0.500,1.000 L 0.000,15.500 L 15.000,15.500 L 16.000,16.500 L 20.000,16.500 L 24.000,18.500 L 27.000,18.500 L 39.000,24.500 L 68.000,44.500 L 70.000,44.500 L 75.000,47.500 L 83.000,48.500 L 84.000,49.500 L 94.000,49.500 Z"/>
<path id="BandLower" d="M 97.000,77.500 L 98.000,76.500 L 102.000,76.500 L 103.000,75.500 L 106.000,75.500 L 107.000,74.500 L 114.000,73.500 L 115.000,72.500 L 126.000,72.500 L 126.500,58.000 L 112.000,57.500 L 111.000,58.500 L 105.000,59.500 L 97.000,62.500 L 81.000,62.500 L 80.000,61.500 L 76.000,61.500 L 62.000,55.500 L 29.000,33.500 L 27.000,33.500 L 24.000,31.500 L 22.000,31.500 L 18.000,29.500 L 13.000,29.500 L 12.000,28.500 L -0.500,29.000 L 0.000,43.500 L 7.000,43.500 L 8.000,44.500 L 18.000,45.500 L 26.000,49.500 L 51.000,67.500 L 63.000,73.500 L 65.000,73.500 L 72.000,76.500 L 76.000,76.500 L 77.000,77.500 L 97.000,77.500 Z"/>
<path id="CapBottomLeft" d="M 0.000,72.500 L 35.500,72.000 L 30.000,67.500 L 17.000,59.500 L 15.000,59.500 L 11.000,57.500 L -0.500,58.000 L 0.000,72.500 Z"/>
</g>
    </g>
    <g id="Wordmark" fill="#F2F3F5">
<path d="M386 496C386 408 328 365 234 365H144V623H234C325 621 386 587 386 496ZM557 0C508 118 404 267 309 315C424 345 460 414 460 496C460 634 375 692 235 692H69V0H144V295L198 294C284 294 464 72 482 0Z" transform="matrix(0.046000 0 0 -0.046000 64.147000 178.632000)"/>
<path d="M107 692C83 692 63 669 63 645C63 621 83 598 107 598C131 598 151 621 151 645C151 669 131 692 107 692ZM144 0V451H69V0Z" transform="matrix(0.046000 0 0 -0.046000 90.229000 178.632000)"/>
<path d="M347 124C347 215 290 241 217 259L198 265C165 273 116 284 116 333C118 387 165 399 207 399C269 396 274 390 325 363V437C285 453 246 462 199 462C123 462 49 428 49 328C51 244 95 217 165 200L186 194C226 182 275 175 275 117C273 64 223 51 186 51C118 54 100 66 43 96V16C79 4 141 -12 184 -12C261 -12 347 19 347 124Z" transform="matrix(0.046000 0 0 -0.046000 100.027000 178.632000)"/>
<path d="M489 0 249 242 479 451H377L145 247V692H69V0H145V237L385 0Z" transform="matrix(0.046000 0 0 -0.046000 117.875000 178.632000)"/>
<path d="M474 202C474 104 412 69 309 69H145V333H309C412 333 474 302 474 202ZM453 513C451 435 386 401 298 401H145V623H298C383 621 453 597 453 513ZM549 193C549 274 506 345 430 368V378C495 394 522 455 522 523C517 649 426 692 306 692H69V0H315C453 0 549 55 549 193Z" transform="matrix(0.046000 0 0 -0.046000 140.875000 178.632000)"/>
<path d="M346 178C346 86 286 52 210 51C155 51 110 77 110 137C112 218 198 230 252 230C294 230 336 208 346 186ZM472 68C461 55 452 51 441 51H438C425 54 415 65 415 83C415 84 415 85 415 86V285C415 396 360 462 225 462C176 462 112 444 73 416V342C114 382 156 400 218 400C295 400 344 372 346 284V255C316 274 272 285 242 285C136 285 42 249 42 132C44 40 97 -12 189 -12C253 -12 311 14 346 59C346 16 368 -10 400 -12C444 -8 470 28 472 68Z" transform="matrix(0.046000 0 0 -0.046000 168.015000 178.632000)"/>
<path d="M458 0V272C458 379 412 462 297 462C238 462 179 440 143 390V452H69V0H143V255C145 341 199 396 279 396C358 396 385 350 385 270V0Z" transform="matrix(0.046000 0 0 -0.046000 191.015000 178.632000)"/>
<path d="M373 380V69C348 58 325 52 283 52C174 54 121 117 121 225C121 330 176 398 283 398C324 396 347 391 373 380ZM448 692H373V449C344 457 313 462 279 462C132 462 46 369 46 225C48 84 129 -12 274 -12C334 -12 387 -4 448 25Z" transform="matrix(0.046000 0 0 -0.046000 214.981000 178.632000)"/>
<path d="M347 124C347 215 290 241 217 259L198 265C165 273 116 284 116 333C118 387 165 399 207 399C269 396 274 390 325 363V437C285 453 246 462 199 462C123 462 49 428 49 328C51 244 95 217 165 200L186 194C226 182 275 175 275 117C273 64 223 51 186 51C118 54 100 66 43 96V16C79 4 141 -12 184 -12C261 -12 347 19 347 124Z" transform="matrix(0.046000 0 0 -0.046000 238.717000 178.632000)"/>
</g>
  </g>
</svg>