<svg xmlns="http://www.w3.org/2000/svg" viewBox="0 0 256 256"><defs><style>.cls-1{fill:#001325;}.cls-2{fill:#11cfe3;}</style></defs><g id="_03_FINAL" data-name="03_FINAL"><rect id="fundo_favicon" class="cls-1" width="256" height="256"/><g id="simbolo_favicon"><path class="cls-2" d="M168,192c-61.37,2.38-86.3-56.48-138.81-56.55-5.42,0-5.52-.24-5.63-5.57-.11-4.92.07-9.85,0-14.78,0-3.1,1.38-4.29,4.47-4.41,63.32-5.08,99,74.88,165.64,52.69,6.89-2.4,35.14-10.26,38.52-1.92.31,6,.2,12,.18,18,0,2.46-1.57,3.35-3.8,3.2C207.79,182.1,188.83,191.79,168,192Z"/><path class="cls-2" d="M38.81,64.59c67.4-1.86,103.68,69.13,147.5,53.62,14.07-5.35,24.48-9.21,39.85-7.3,5.1.37,6.13,1.66,6.25,6.62.14,5.19,0,10.38,0,15.57,0,2.39-.93,3.36-3.57,2.9-10-1.75-19.77-.27-29,3.3-66.36,29.08-106.12-58.92-171.52-50-3.53,0-4.93-1.37-4.82-4.85C24.68,63.2,18.27,64.35,38.81,64.59Z"/><path class="cls-2" d="M219.65,89.25c-26.28-1.94-52.7,22.43-73.9-2.2-1.16-1.26-1.23-2.27.53-3,25.72-12,52.95-23.16,82.26-19.29,2.72.16,3.91,1.45,3.89,4.11C231.42,90.05,237.2,89.55,219.65,89.25Z"/><path class="cls-2" d="M81.54,183c-17.22,0-34.43.06-51.65,0-6.18,0-6.23-.16-6.34-6.51-.08-4.37-.11-8.74.07-13.11.19-4.71.43-4.9,5.37-5.07C49.78,156.48,66.79,169.61,81.54,183Z"/></g></g></svg>