<svg xmlns="http://www.w3.org/2000/svg" width="64" height="64" viewBox="0 0 64 64">
  <rect width="64" height="64" rx="0" fill="#001325"/>
  <g id="FaviconSymbol" transform="translate(8 17) scale(0.378)">
    <g id="Symbol" fill="#12CFE4">
<path id="CapTopRight" d="M 93.000,21.500 L 99.000,18.500 L 105.000,17.500 L 106.000,16.500 L 110.000,16.500 L 111.000,15.500 L 126.000,15.500 L 126.500,1.000 L 118.000,0.500 L 117.000,-0.500 L 115.000,0.500 L 105.000,0.500 L 104.000,1.500 L 94.000,3.500 L 91.000,5.500 L 84.000,7.500 L 72.500,13.000 L 79.000,18.500 L 83.000,20.500 L 85.000,20.500 L 86.000,21.500 L 93.000,21.500 Z"/>
<path id="BandUpper" d="M 94.000,49.500 L 95.000,48.500 L 99.000,48.500 L 100.000,47.500 L 103.000,47.500 L 104.000,46.500 L 106.000,46.500 L 110.000,44.500 L 114.000,44.500 L 115.000,43.500 L 124.000,43.500 L 126.000,44.500 L 126.500,30.000 L 124.000,28.500 L 111.000,28.500 L 110.000,29.500 L 107.000,29.500 L 104.000,31.500 L 102.000,31.500 L 98.000,33.500 L 95.000,33.500 L 94.000,34.500 L 86.000,34.500 L 85.000,33.500 L 79.000,32.500 L 71.000,28.500 L 64.000,22.500 L 49.000,12.500 L 30.000,3.500 L 27.000,3.500 L 22.000,1.500 L 18.000,1.500 L 17.000,0.500 L -0.500,1.000 L 0.000,15.500 L 15.000,15.500 L 16.000,16.500 L 20.000,16.500 L 24.000,18.500 L 27.000,18.500 L 39.000,24.500 L 68.000,44.500 L 70.000,44.500 L 75.000,47.500 L 83.000,48.500 L 84.000,49.500 L 94.000,49.500 Z"/>
<path id="BandLower" d="M 97.000,77.500 L 98.000,76.500 L 102.000,76.500 L 103.000,75.500 L 106.000,75.500 L 107.000,74.500 L 114.000,73.500 L 115.000,72.500 L 126.000,72.500 L 126.500,58.000 L 112.000,57.500 L 111.000,58.500 L 105.000,59.500 L 97.000,62.500 L 81.000,62.500 L 80.000,61.500 L 76.000,61.500 L 62.000,55.500 L 29.000,33.500 L 27.000,33.500 L 24.000,31.500 L 22.000,31.500 L 18.000,29.500 L 13.000,29.500 L 12.000,28.500 L -0.500,29.000 L 0.000,43.500 L 7.000,43.500 L 8.000,44.500 L 18.000,45.500 L 26.000,49.500 L 51.000,67.500 L 63.000,73.500 L 65.000,73.500 L 72.000,76.500 L 76.000,76.500 L 77.000,77.500 L 97.000,77.500 Z"/>
<path id="CapBottomLeft" d="M 0.000,72.500 L 35.500,72.000 L 30.000,67.500 L 17.000,59.500 L 15.000,59.500 L 11.000,57.500 L -0.500,58.000 L 0.000,72.500 Z"/>
</g>
  </g>
</svg>