<svg xmlns="http://www.w3.org/2000/svg" viewBox="0 0 1024 1024"><defs><style>.cls-1{fill:#001325;}.cls-2{fill:#11cfe3;}</style></defs><g id="_03_FINAL" data-name="03_FINAL"><rect id="fundo_p1" class="cls-1" width="1024" height="1024"/><g id="simbolo_p1"><path class="cls-2" d="M650.12,732.37C438.27,740.6,352.22,537.43,171,537.19c-18.73-.05-19-.84-19.45-19.24-.37-17,.24-34,.05-51-.12-10.71,4.77-14.81,15.41-15.22C385.56,434.2,508.77,710.18,738.77,633.6c23.79-8.29,121.28-35.43,133-6.62,1.08,20.72.7,41.52.6,62.3,0,8.49-5.42,11.57-13.1,11C787.45,698.33,722,731.75,650.12,732.37Z"/><path class="cls-2" d="M204.18,292.68c232.65-6.42,357.89,238.62,509.14,185.08,48.56-18.43,84.49-31.76,137.55-25.19,17.62,1.28,21.15,5.75,21.59,22.86.46,17.91.14,35.84.09,53.76,0,8.24-3.19,11.59-12.31,10-34.42-6-68.26-.93-100.16,11.4C531,651,393.76,347.2,168,377.88c-12.18.06-17-4.71-16.64-16.75C155.39,287.91,133.26,291.88,204.18,292.68Z"/><path class="cls-2" d="M828.42,377.83c-90.72-6.72-181.93,77.41-255.09-7.61-4-4.34-4.26-7.85,1.83-10.41,88.78-41.32,182.75-80,283.94-66.59,9.39.53,13.49,5,13.43,14.19C869,380.57,889,378.84,828.42,377.83Z"/><path class="cls-2" d="M351.66,701.24c-59.42-.08-118.84.21-178.27-.15-21.35-.15-21.52-.55-21.9-22.48-.25-15.08-.35-30.19.25-45.25.65-16.27,1.48-16.93,18.53-17.52C242,609.9,300.75,655.21,351.66,701.24Z"/></g></g></svg>