<svg xmlns="http://www.w3.org/2000/svg" viewBox="0 0 1600 500"><defs><style>.cls-1{fill:#001325;}.cls-2{fill:#11cfe3;}</style></defs><g id="_03_FINAL" data-name="03_FINAL"><rect id="fundo_social_preview_1" class="cls-1" width="1600" height="500"/><path class="cls-2" d="M614.9,308.9V186.5h49.47c1.19,0,2.66,0,4.42.12a38.74,38.74,0,0,1,5,.56,36.25,36.25,0,0,1,17.05,7,33,33,0,0,1,10.24,13.51,46.36,46.36,0,0,1,3.4,18q0,14.63-7.48,25.2T674.57,264.1l-7.23.85H632.67V308.9Zm17.77-60.78h31c1.13,0,2.39-.05,3.78-.17a28,28,0,0,0,3.95-.59,17.26,17.26,0,0,0,8.76-4.72,20.18,20.18,0,0,0,4.76-7.95,29.4,29.4,0,0,0,1.44-9,29.1,29.1,0,0,0-1.44-9,20.21,20.21,0,0,0-4.76-7.9,17.34,17.34,0,0,0-8.76-4.72,22.14,22.14,0,0,0-3.95-.68c-1.39-.11-2.65-.17-3.78-.17h-31Zm53.8,60.78-24.14-49.81,17.93-4.59,26.53,54.4Z"/><path class="cls-2" d="M724.63,202.05V184.8H742.4v17.25Zm0,106.85V217.1H742.4v91.8Z"/><path class="cls-2" d="M800.45,311.36q-16.74,0-27.28-7.39t-12.92-20.83l18.19-2.8a18.16,18.16,0,0,0,7.86,11.26q6.16,4.13,15.34,4.12,8.34,0,13.05-3.4a10.88,10.88,0,0,0,4.72-9.35,9,9,0,0,0-1.66-5.65c-1.1-1.44-3.41-2.82-6.93-4.12s-8.86-2.92-16.06-4.85A94.63,94.63,0,0,1,776,261.77q-6.93-3.54-9.86-8.25a21.19,21.19,0,0,1-2.94-11.43,24.45,24.45,0,0,1,4.42-14.54A28.45,28.45,0,0,1,780.1,218a47.94,47.94,0,0,1,18.82-3.4,50.05,50.05,0,0,1,18.79,3.31,33.17,33.17,0,0,1,13.34,9.39,26.88,26.88,0,0,1,6.12,14.24L819,244.81a15,15,0,0,0-6.2-10.46q-5.28-3.82-13.69-4.16-8.07-.34-13.09,2.67t-5,8.29a7.51,7.51,0,0,0,1.91,5.19q1.92,2.11,7.44,4.08t16.32,4.67A85.55,85.55,0,0,1,825,261.68q6.79,3.61,9.73,8.59a23.2,23.2,0,0,1,2.93,12q0,13.6-9.9,21.34T800.45,311.36Z"/><path class="cls-2" d="M853.83,308.9l.09-122.4h18v74.8l36-44.2h22.61L892.51,263l42,45.9H910.36l-38.42-44.2v44.2Z"/><path class="cls-2" d="M940.45,308.9V186.5H989q12.4,0,20.36,5a31.52,31.52,0,0,1,11.81,12.71,35.27,35.27,0,0,1,3.87,16q0,10.11-4.8,17.17a23.49,23.49,0,0,1-13.05,9.52V242.6q11.57,2.63,17.55,11a31.63,31.63,0,0,1,6,19,41.31,41.31,0,0,1-4.17,19,30,30,0,0,1-12.37,12.75q-8.2,4.59-20.27,4.59Zm20.74-73.53h27.54a17.7,17.7,0,0,0,7.9-1.7,13.12,13.12,0,0,0,5.53-5,15.3,15.3,0,0,0,2-8.16,14.76,14.76,0,0,0-4.08-10.63q-4.08-4.25-11.39-4.25H961.19Zm0,54.23h30.17a20.94,20.94,0,0,0,9.61-2.16,16.46,16.46,0,0,0,6.67-6.13,17.64,17.64,0,0,0,2.42-9.39,18.31,18.31,0,0,0-2.12-8.84,15.94,15.94,0,0,0-6.21-6.25A19.43,19.43,0,0,0,992,254.5H961.19Z"/><path class="cls-2" d="M1070.84,311.45q-9.94,0-16.83-3.78a25.91,25.91,0,0,1-10.42-10.08,27.83,27.83,0,0,1-3.52-13.85,30.77,30.77,0,0,1,2.21-11.95,23.87,23.87,0,0,1,6.8-9.18,36.49,36.49,0,0,1,11.9-6.33,113.29,113.29,0,0,1,13-3.23q7.44-1.44,16.15-2.67t18.23-2.68l-7.31,4.16q.09-9.51-4.25-14t-14.62-4.51a26.53,26.53,0,0,0-12,2.89q-5.79,2.9-8.08,9.95l-18.7-5.87a34.74,34.74,0,0,1,13-18.7q9.57-7,25.8-7a54.33,54.33,0,0,1,21.55,4,26.76,26.76,0,0,1,13.81,13.09,28,28,0,0,1,3,9.91,110,110,0,0,1,.51,11V308.9h-17.94V289l3,3.23q-6.21,9.94-14.5,14.57T1070.84,311.45Zm4.08-16.32a26.31,26.31,0,0,0,11.9-2.47,23.74,23.74,0,0,0,7.86-6,21.28,21.28,0,0,0,4-6.72,26.09,26.09,0,0,0,1.83-9q.21-5.06.21-8.2l6.29,1.87q-9.27,1.45-15.89,2.55t-11.39,2.09a78.62,78.62,0,0,0-8.42,2.16,25.67,25.67,0,0,0-6,3,12.54,12.54,0,0,0-3.79,3.91,9.9,9.9,0,0,0-1.31,5.18,10.65,10.65,0,0,0,1.7,6,11.7,11.7,0,0,0,5,4.12A19.13,19.13,0,0,0,1074.92,295.13Z"/><path class="cls-2" d="M1140.36,308.9V217.1h18.28v28.47h2.46V308.9Zm63.67,0V264.7a85.7,85.7,0,0,0-.6-9.61,34,34,0,0,0-2.76-10.15,19.68,19.68,0,0,0-6.46-8q-4.29-3.14-11.6-3.14a24.33,24.33,0,0,0-7.74,1.27,17.53,17.53,0,0,0-6.92,4.38,22,22,0,0,0-5,8.5,43.07,43.07,0,0,0-1.87,13.81L1149,256.54a48.54,48.54,0,0,1,4.55-21.25,36.16,36.16,0,0,1,13.38-15.18q8.85-5.64,21.76-5.65,10.2,0,16.83,3.4a29.74,29.74,0,0,1,10.54,8.67,37.67,37.67,0,0,1,5.78,11.22,57.47,57.47,0,0,1,2.43,11.27c.36,3.54.55,6.41.55,8.62V308.9Z"/><path class="cls-2" d="M1279.68,311.45a38.51,38.51,0,0,1-22.1-6.38A42.15,42.15,0,0,1,1243,287.73a61.63,61.63,0,0,1,0-49.6,41.76,41.76,0,0,1,14.83-17.25q9.6-6.33,22.61-6.33t22,6.33a39.35,39.35,0,0,1,13.48,17.3,69,69,0,0,1,0,49.51,39,39,0,0,1-13.69,17.38Q1293.11,311.45,1279.68,311.45Zm3.14-18.36q8.25,0,13.3-3.78a21.58,21.58,0,0,0,7.4-10.59,54.14,54.14,0,0,0,0-31.49,21.89,21.89,0,0,0-7.27-10.54q-4.93-3.78-12.75-3.78-8.25,0-13.6,4a23.58,23.58,0,0,0-7.9,10.89,43.11,43.11,0,0,0-2.55,15.17,44.07,44.07,0,0,0,2.5,15.25,23.43,23.43,0,0,0,7.7,10.84Q1274.82,293.1,1282.82,293.09Zm23,15.81V244.47h-2.55v-58H1324V308.9Z"/><path class="cls-2" d="M1380.65,311.45q-17,0-27.62-7.65t-12.92-21.51l20.91-3.23a17.57,17.57,0,0,0,7.14,10.71q5.52,3.92,13.94,3.91,7.39,0,11.43-2.93a9.4,9.4,0,0,0,4-8,8,8,0,0,0-1.49-5.06q-1.49-1.92-6.5-3.7t-15.39-4.5a92.44,92.44,0,0,1-18.36-6.59q-6.8-3.53-9.77-8.37a21.94,21.94,0,0,1-3-11.73,25.2,25.2,0,0,1,4.51-15,28.76,28.76,0,0,1,12.58-9.82,48.21,48.21,0,0,1,19-3.44,50.88,50.88,0,0,1,19,3.31,33,33,0,0,1,13.38,9.44,28.26,28.26,0,0,1,6.29,14.36L1397,245.4a13.19,13.19,0,0,0-5.31-9.26q-4.54-3.4-12.11-3.83-7.23-.42-11.65,2.17a8.06,8.06,0,0,0-4.42,7.27,6.28,6.28,0,0,0,1.79,4.5q1.79,1.88,7.18,3.74t16.11,4.59a76.55,76.55,0,0,1,17.55,6.42q6.59,3.62,9.52,8.63a23.61,23.61,0,0,1,2.93,12.15q0,13.86-10.07,21.76T1380.65,311.45Z"/><g id="simbolo_social_preview_1"><path class="cls-2" d="M435.92,382.66C308.63,387.6,256.93,265.53,148,265.39c-11.26,0-11.45-.5-11.69-11.56-.22-10.21.14-20.43,0-30.64-.07-6.44,2.87-8.9,9.26-9.14C277,203.51,351,369.32,489.18,323.32c14.29-5,72.86-21.29,79.89-4,.65,12.45.41,25,.36,37.43,0,5.1-3.26,7-7.88,6.63C518.43,362.21,479.11,382.29,435.92,382.66Z"/><path class="cls-2" d="M168,118.48c139.78-3.86,215,143.37,305.9,111.21,29.17-11.08,50.76-19.09,82.64-15.14,10.59.77,12.71,3.45,13,13.73.28,10.76.09,21.54.06,32.3,0,4.95-1.92,7-7.4,6-20.68-3.62-41-.56-60.18,6.84C364.34,333.75,281.89,151.24,146.24,169.67c-7.32,0-10.22-2.83-10-10.06C138.67,115.62,125.38,118,168,118.48Z"/><path class="cls-2" d="M543,169.64c-54.5-4-109.31,46.51-153.26-4.57-2.41-2.6-2.56-4.71,1.1-6.25,53.34-24.83,109.8-48,170.6-40,5.64.32,8.1,3,8.07,8.52C567.44,171.29,579.43,170.25,543,169.64Z"/><path class="cls-2" d="M256.6,364c-35.71,0-71.41.13-107.11-.08-12.83-.09-12.94-.34-13.16-13.51-.15-9.06-.21-18.14.15-27.19.39-9.77.89-10.17,11.13-10.52C190.73,309.08,226,336.3,256.6,364Z"/></g></g></svg>